HIERARCHY
ROOT joint_Root
{
	OFFSET 0.0 0.0 0.0
	CHANNELS 6 Xposition Yposition Zposition Zrotation Xrotation Yrotation 
	JOINT Hips
	{
		OFFSET 4.5925 91.4895 -427.239
		CHANNELS 6 Xposition Yposition Zposition Zrotation Xrotation Yrotation 
		JOINT Spine
		{
			OFFSET 15.7357 0.0 0.0
			CHANNELS 6 Xposition Yposition Zposition Zrotation Xrotation Yrotation 
			JOINT Chest
			{
				OFFSET 8.98455 -0.406207 0.0
				CHANNELS 6 Xposition Yposition Zposition Zrotation Xrotation Yrotation 
				JOINT Neck
				{
					OFFSET 16.3773 0.0 0.0
					CHANNELS 6 Xposition Yposition Zposition Zrotation Xrotation Yrotation 
					JOINT Head
					{
						OFFSET 6.45672 0.0 0.0
						CHANNELS 6 Xposition Yposition Zposition Zrotation Xrotation Yrotation 
						End Site
						{
							OFFSET 0.0 0.0 0.0
						}
					}
				}
				JOINT Shoulder_L
				{
					OFFSET 12.9942 -0.242716 4.98039
					CHANNELS 6 Xposition Yposition Zposition Zrotation Xrotation Yrotation 
					JOINT UpperArm_L
					{
						OFFSET 5.34809 0.0 0.0
						CHANNELS 6 Xposition Yposition Zposition Zrotation Xrotation Yrotation 
						JOINT LowerArm_L
						{
							OFFSET 24.3286 1.87007e-05 0.0
							CHANNELS 6 Xposition Yposition Zposition Zrotation Xrotation Yrotation 
							JOINT Hand_L
							{
								OFFSET 22.2916 0.0 0.0
								CHANNELS 6 Xposition Yposition Zposition Zrotation Xrotation Yrotation 
								End Site
								{
									OFFSET 0.0 0.0 0.0
								}
							}
						}
					}
				}
				JOINT Shoulder_R
				{
					OFFSET 12.9945 -0.242716 -4.98039
					CHANNELS 6 Xposition Yposition Zposition Zrotation Xrotation Yrotation 
					JOINT UpperArm_R
					{
						OFFSET -5.34813 0.0 0.0
						CHANNELS 6 Xposition Yposition Zposition Zrotation Xrotation Yrotation 
						JOINT LowerArm_R
						{
							OFFSET -24.3289 0.000322201 0.0
							CHANNELS 6 Xposition Yposition Zposition Zrotation Xrotation Yrotation 
							JOINT Hand_R
							{
								OFFSET -22.2915 -0.000108084 0.0
								CHANNELS 6 Xposition Yposition Zposition Zrotation Xrotation Yrotation 
								End Site
								{
									OFFSET 0.0 0.0 0.0
								}
							}
						}
					}
				}
			}
		}
		JOINT UpperLeg_L
		{
			OFFSET -2.19248 -6.46944 0.0
			CHANNELS 6 Xposition Yposition Zposition Zrotation Xrotation Yrotation 
			JOINT LowerLeg_L
			{
				OFFSET 39.0811 0.0 -1.23785e-05
				CHANNELS 6 Xposition Yposition Zposition Zrotation Xrotation Yrotation 
				JOINT Foot_L
				{
					OFFSET 40.9854 0.0 -1.26872e-05
					CHANNELS 6 Xposition Yposition Zposition Zrotation Xrotation Yrotation 
					JOINT Toes_L
					{
						OFFSET 11.7543 0.0 0.0
						CHANNELS 6 Xposition Yposition Zposition Zrotation Xrotation Yrotation 
						End Site
						{
							OFFSET 0.0 0.0 0.0
						}
					}
				}
			}
		}
		JOINT UpperLeg_R
		{
			OFFSET -2.19251 6.46944 0.0
			CHANNELS 6 Xposition Yposition Zposition Zrotation Xrotation Yrotation 
			JOINT LowerLeg_R
			{
				OFFSET -39.0811 -0.00228153 -0.0401928
				CHANNELS 6 Xposition Yposition Zposition Zrotation Xrotation Yrotation 
				JOINT Foot_R
				{
					OFFSET -40.9854 0.0 0.0
					CHANNELS 6 Xposition Yposition Zposition Zrotation Xrotation Yrotation 
					JOINT Toes_R
					{
						OFFSET -11.7543 0.0 0.0
						CHANNELS 6 Xposition Yposition Zposition Zrotation Xrotation Yrotation 
						End Site
						{
							OFFSET 0.0 0.0 0.0
						}
					}
				}
			}
		}
	}
}
MOTION
Frames:	6
Frame Time:	0.0333333
0.000000 0.000000 0.000000 0.000000 0.000000 -0.000000 102.825000 86.439500 166.477000 -27.774500 78.132400 126.705000 15.735700 0.000005 -0.000001 81.955100 83.484500 -80.631600 8.984550 -0.406207 -0.000000 5.161670 -1.849900 2.727490 16.377300 -0.000001 -0.000001 -0.355423 -7.431490 2.304420 6.456720 -0.000001 -0.000000 -7.943740 -7.057370 2.298160 12.994200 -0.242716 4.980390 -91.796300 6.907030 -75.383700 5.348090 -0.000007 -0.000001 -59.537900 33.072100 -20.818100 24.328600 0.000019 0.000005 6.588210 20.910600 -17.931400 22.291600 -0.000001 0.000005 9.012930 5.230390 1.945730 12.994500 -0.242716 -4.980390 88.201900 9.615210 -79.355600 -5.348130 -0.000001 -0.000004 -50.734700 30.114600 -21.136200 -24.328900 0.000322 -0.000009 -2.338300 -1.651490 -54.771100 -22.291500 -0.000108 -0.000004 21.548100 5.510540 -6.963830 -2.192480 -6.469440 -0.000000 173.450000 -26.683100 -11.366800 39.081100 -0.000007 -0.000012 -0.248351 0.339766 36.165300 40.985400 -0.000006 -0.000013 16.321900 -12.648400 -74.172100 11.754300 -0.000000 0.000003 -0.000005 -0.000078 -16.580600 -2.192510 6.469440 -0.000001 171.889000 3.945640 165.719000 -39.081100 -0.002282 -0.040193 0.049475 -0.013422 73.873600 -40.985400 0.000008 0.000006 -8.738300 12.135700 -39.796400 -11.754300 -0.000006 -0.000006 -0.021417 -0.175017 -23.726400
0.000000 0.000000 0.000000 0.000000 0.000000 -0.000000 104.893000 86.752900 164.852000 -49.038900 72.244200 146.980000 15.735700 0.000005 -0.000001 74.702600 83.433000 -73.023900 8.984550 -0.406207 -0.000000 4.963560 -3.499320 3.506050 16.377300 -0.000001 -0.000001 -0.760030 -7.058450 1.544630 6.456720 -0.000001 -0.000000 -8.285330 -5.172650 -0.683776 12.994200 -0.242716 4.980390 -91.685000 7.170990 -76.739700 5.348090 -0.000007 -0.000001 -56.947200 37.331800 -28.062800 24.328600 0.000019 0.000005 8.049250 18.922700 -23.561000 22.291600 -0.000001 0.000005 13.216000 5.254840 1.304670 12.994500 -0.242716 -4.980390 88.191800 9.411250 -79.072900 -5.348130 -0.000001 -0.000004 -49.901100 31.521000 -18.471800 -24.328900 0.000322 -0.000009 -1.541900 -1.518990 -45.417100 -22.291500 -0.000108 -0.000004 18.031100 5.487690 -6.044990 -2.192480 -6.469440 -0.000000 173.845000 -22.722000 -7.804340 39.081100 -0.000007 -0.000012 -0.168319 0.258374 33.082800 40.985400 -0.000006 -0.000013 18.847500 -9.298610 -74.945200 11.754300 -0.000000 0.000003 -0.254577 -0.307899 -16.381900 -2.192510 6.469440 -0.000001 173.462000 3.169500 162.455000 -39.081100 -0.002282 -0.040193 -0.024908 0.008197 73.662200 -40.985400 0.000008 0.000006 -4.522300 6.236990 -44.142200 -11.754300 -0.000006 -0.000006 -0.020877 -0.172099 -23.606100
0.000000 0.000000 0.000000 0.000000 0.000000 -0.000000 106.849000 87.264000 163.265000 -59.119400 64.847500 155.867000 15.735700 0.000005 -0.000001 68.554800 83.398500 -66.530000 8.984550 -0.406207 -0.000000 4.625830 -4.874060 4.243950 16.377300 -0.000001 -0.000001 -1.112810 -6.610000 1.057790 6.456720 -0.000001 -0.000000 -8.210600 -3.697630 -2.439240 12.994200 -0.242716 4.980390 -91.349200 6.360700 -77.997800 5.348090 -0.000007 -0.000001 -53.740400 42.140700 -37.032100 24.328600 0.000019 0.000005 8.590050 16.795200 -27.599500 22.291600 -0.000001 0.000005 15.274000 5.278990 0.653723 12.994500 -0.242716 -4.980390 88.160900 9.610660 -79.113200 -5.348130 -0.000001 -0.000004 -50.247200 33.117200 -14.489800 -24.328900 0.000322 -0.000009 -0.371125 -0.520444 -35.411100 -22.291500 -0.000108 -0.000004 13.487400 5.438240 -4.224120 -2.192480 -6.469440 -0.000000 174.487000 -18.563300 -4.175600 39.081100 -0.000007 -0.000012 -0.013282 0.024008 28.954300 40.985400 -0.000006 -0.000013 22.809800 -6.032180 -74.725000 11.754300 -0.000000 0.000003 -0.198864 -0.247366 -16.964300 -2.192510 6.469440 -0.000001 175.004000 0.905527 159.954000 -39.081100 -0.002282 -0.040193 -0.066536 0.024473 70.638100 -40.985400 0.000008 0.000006 -2.495800 5.497310 -49.350100 -11.754300 -0.000006 -0.000006 -0.020836 -0.171878 -23.597000
0.000000 0.000000 0.000000 0.000000 0.000000 -0.000000 108.760000 87.817700 161.752000 -65.548800 56.676800 161.025000 15.735700 0.000005 -0.000001 62.419800 83.309300 -60.150800 8.984550 -0.406207 -0.000000 4.243530 -6.255560 4.768470 16.377300 -0.000001 -0.000001 -1.485170 -6.302230 0.649489 6.456720 -0.000001 -0.000000 -7.952620 -2.568230 -3.115110 12.994200 -0.242716 4.980390 -90.983500 5.196170 -79.267200 5.348090 -0.000007 -0.000001 -48.427500 47.154600 -47.818500 24.328600 0.000019 0.000005 8.637290 14.574800 -31.116700 22.291600 -0.000001 0.000005 14.877000 5.277080 0.706043 12.994500 -0.242716 -4.980390 88.090100 10.017400 -79.147800 -5.348130 -0.000001 -0.000004 -52.240100 34.139100 -9.522610 -24.328900 0.000322 -0.000009 1.077130 2.313600 -24.998500 -22.291500 -0.000108 -0.000004 8.601720 5.388200 -2.557090 -2.192480 -6.469440 -0.000000 175.628000 -14.644400 -1.850240 39.081100 -0.000007 -0.000012 -0.003439 0.006797 26.844400 40.985400 -0.000006 -0.000013 23.423500 -1.252020 -73.701900 11.754300 -0.000000 0.000003 -1.004070 -1.200230 -19.011600 -2.192510 6.469440 -0.000001 175.974000 -1.004490 158.052000 -39.081100 -0.002282 -0.040193 -0.065573 0.031253 65.548700 -40.985400 0.000008 0.000006 -1.240010 5.874460 -54.540000 -11.754300 -0.000006 -0.000006 -0.019713 -0.165694 -23.342200
0.000000 0.000000 0.000000 0.000000 0.000000 -0.000000 110.743000 88.347600 160.327000 -69.832800 48.559600 163.709000 15.735700 0.000005 -0.000001 57.399000 83.314900 -54.960900 8.984550 -0.406207 -0.000000 3.682600 -7.281470 5.110420 16.377300 -0.000001 -0.000001 -1.922400 -6.180000 0.557924 6.456720 -0.000001 -0.000000 -7.967430 -1.615920 -3.340780 12.994200 -0.242716 4.980390 -90.684800 4.054090 -80.404000 5.348090 -0.000007 -0.000001 -39.777800 51.451600 -60.784300 24.328600 0.000019 0.000005 9.613150 13.859400 -35.263000 22.291600 -0.000001 0.000005 13.390600 5.281090 0.596272 12.994500 -0.242716 -4.980390 88.002800 10.219800 -78.880800 -5.348130 -0.000001 -0.000004 -56.250800 32.865400 -3.698600 -24.328900 0.000322 -0.000009 2.175600 7.774640 -15.695700 -22.291500 -0.000108 -0.000004 5.115650 5.343390 -1.179040 -2.192480 -6.469440 -0.000000 176.930000 -11.050900 -0.253167 39.081100 -0.000007 -0.000012 0.012719 -0.027084 25.154500 40.985400 -0.000006 -0.000013 23.814900 3.936270 -72.556900 11.754300 -0.000000 0.000003 -1.675980 -1.914570 -21.690900 -2.192510 6.469440 -0.000001 176.721000 -2.166430 155.982000 -39.081100 -0.002282 -0.040193 -0.044583 0.028687 59.024300 -40.985400 0.000008 0.000006 -0.540251 4.259210 -57.855300 -11.754300 -0.000006 -0.000006 -0.020373 -0.169346 -23.492600
0.000000 0.000000 0.000000 0.000000 0.000000 -0.000000 112.909000 88.775300 158.838000 -72.906700 41.217900 165.192000 15.735700 0.000005 -0.000001 53.970300 83.314100 -51.486400 8.984550 -0.406207 -0.000000 3.252670 -7.954760 5.195050 16.377300 -0.000001 -0.000001 -2.477370 -6.016690 0.786252 6.456720 -0.000001 -0.000000 -8.281270 -0.661446 -3.172120 12.994200 -0.242716 4.980390 -90.459000 2.936530 -81.111800 5.348090 -0.000007 -0.000001 -28.903900 53.705400 -74.622700 24.328600 0.000019 0.000005 12.868100 15.239400 -40.993300 22.291600 -0.000001 0.000005 11.682100 5.301060 0.042334 12.994500 -0.242716 -4.980390 87.998900 9.908920 -78.522400 -5.348130 -0.000001 -0.000004 -61.171400 27.132200 1.732370 -24.328900 0.000322 -0.000009 1.901520 13.655100 -8.010400 -22.291500 -0.000108 -0.000004 4.413160 5.268240 0.945193 -2.192480 -6.469440 -0.000000 178.195000 -7.464640 1.128580 39.081100 -0.000007 -0.000012 0.008783 -0.019838 23.881700 40.985400 -0.000006 -0.000013 23.933200 8.280040 -72.210600 11.754300 -0.000000 0.000003 -0.715054 -0.844011 -22.356300 -2.192510 6.469440 -0.000001 177.514000 -1.870620 153.943000 -39.081100 -0.002282 -0.040193 -0.011451 0.011575 51.766100 -40.985400 0.000008 0.000006 1.818990 2.387410 -59.992000 -11.754300 -0.000006 -0.000006 -0.021269 -0.174221 -23.693600
